# xmcd CD database file
#
# Track frame offsets:
#	150
#	17839
#	35468
#	52598
#	68759
#	86410
#	105991
#	126083
#	143084
#	160660
#	178899
#	191781
#	208286
#	227171
#	245874
#
# Disc length: 3522 seconds
#
# Revision: 2
# Processed by: cddbd v1.5.2PL0 Copyright (c) Steve Scherf et al.
# Submitted via: CDex 1.70beta3
#
DISCID=cc0dc00f
DTITLE=Gotthard - Domino Effect
DYEAR=2007
DGENRE=Melodic Hard Rock
TTITLE0=Master Of Illusion
TTITLE1=Gone Too Far
TTITLE2=Domino Effect
TTITLE3=Falling
TTITLE4=The Call
TTITLE5=The Oscar Goes To...
TTITLE6=The Cruiser (Judgement Day)
TTITLE7=Heal Me
TTITLE8=Letter To A Friend
TTITLE9=Tomorrow's Just Begun
TTITLE10=Come Alive
TTITLE11=Bad To The Bone
TTITLE12=Now
TTITLE13=Where Is Love When It's Gone
TTITLE14=Superman
EXTD=YEAR: 2007
EXTT0=
EXTT1=
EXTT2=
EXTT3=
EXTT4=
EXTT5=
EXTT6=
EXTT7=
EXTT8=
EXTT9=
EXTT10=
EXTT11=
EXTT12=
EXTT13=
EXTT14=
PLAYORDER=
